<?xml version="1.0" encoding="UTF-8"?>
<svg xmlns="http://www.w3.org/2000/svg" viewBox="0 0 768 1366">
  <defs>
    <style>
      .cls-1 {
        fill: #0078d7;
        isolation: isolate;
        opacity: .34;
      }
      
      .cls-2 {
        fill: #333;
      }

      .hoverOne {
        animation: hover 1.5s ease alternate infinite;
      }

      .hoverTwo {
        animation: hover 1s ease alternate infinite;
        animation-delay: 0.5s;
      }

      .hoverThree {
        animation: hover 1s ease alternate infinite;
        animation-delay: 0.8s;
      }

      .hoverFour {
        animation: hover 1s ease alternate infinite;
        animation-delay: 0.3s;
      }

      <!-- @keyframes hover {
        from {
            translate: 0 0;
        }
        to {
            translate: 0 20px;
        }
      } -->

      @keyframes hover {
        from {
            opacity: 20%;
        }
        to {
           opacity: 5%;
        }
      }
    </style>
  </defs>
  <g id="bg">
    <rect class="cls-2" x=".08" y="-.02" width="768" height="1366"/>
  </g>
  <g id="hexagons">
    <path id="oct_9" data-name="oct 9" class="cls-1 hoverOne" d="M13.6,1080H-146.55c-10.8,.04-20.76,5.8-26.16,15.15l-80.18,138.67c-5.45,9.38-5.45,20.96,0,30.34l80.18,138.67c5.41,9.38,15.42,15.16,26.25,15.15H13.6c10.83,.02,20.85-5.76,26.25-15.15l80.18-138.67c5.4-9.39,5.4-20.95,0-30.34l-80.18-138.67c-5.41-9.38-15.42-15.15-26.25-15.15Zm-34.39,278.14H-111.82c-10.83,0-20.83-5.78-26.25-15.15l-45.49-78.83c-5.4-9.39-5.4-20.95,0-30.34l45.32-78.79c5.41-9.38,15.42-15.16,26.25-15.15H-20.8c10.83-.02,20.85,5.76,26.25,15.15l45.49,78.79c5.45,9.38,5.45,20.96,0,30.34l-45.66,78.87c-5.39,9.31-15.32,15.06-26.08,15.11Z"/>
    <path id="oct_8" data-name="oct 8" class="cls-1 hoverFour" d="M239.11,1249h-68.08c-4.59,.02-8.83,2.47-11.12,6.44l-34.09,58.95c-2.32,3.99-2.32,8.91,0,12.9l34.09,58.95c2.3,3.99,6.55,6.45,11.16,6.44h68.05c4.61,0,8.86-2.45,11.16-6.44l34.09-58.95c2.3-3.99,2.3-8.91,0-12.9l-34.09-58.95c-2.3-3.99-6.56-6.44-11.16-6.44Zm-14.62,118.25h-38.7c-4.6,0-8.85-2.46-11.16-6.44l-19.34-33.51c-2.3-3.99-2.3-8.91,0-12.9l19.27-33.5c2.3-3.99,6.55-6.45,11.16-6.44h38.77c4.61,0,8.86,2.45,11.16,6.44l19.34,33.5c2.32,3.99,2.32,8.91,0,12.9l-19.41,33.53c-2.29,3.96-6.51,6.4-11.09,6.42Z"/>
    <path id="oct_7" data-name="oct 7" class="cls-1 hoverThree" d="M381.35,1190.98h-51.06c-3.44,.01-6.62,1.85-8.34,4.83l-25.56,44.21c-1.74,2.99-1.74,6.68,0,9.67l25.56,44.21c1.72,2.99,4.92,4.83,8.37,4.83h51.03c3.45,0,6.65-1.84,8.37-4.83l25.56-44.21c1.72-2.99,1.72-6.68,0-9.67l-25.56-44.21c-1.73-2.99-4.92-4.83-8.37-4.83Zm-10.97,88.68h-29.02c-3.45,0-6.64-1.84-8.37-4.83l-14.5-25.13c-1.72-2.99-1.72-6.68,0-9.67l14.45-25.12c1.72-2.99,4.92-4.83,8.37-4.83h29.08c3.45,0,6.65,1.84,8.37,4.83l14.5,25.12c1.74,2.99,1.74,6.68,0,9.67l-14.56,25.15c-1.72,2.97-4.88,4.8-8.31,4.82Z"/>
    <path id="oct_6" data-name="oct 6" class="cls-1 hoverTwo" d="M435.9,1320.59h-88.68c-5.98,.02-11.49,3.21-14.49,8.39l-44.4,76.78c-3.02,5.19-3.02,11.61,0,16.8l44.4,76.78c2.99,5.2,8.54,8.4,14.53,8.39h88.63c6,.01,11.54-3.19,14.53-8.39l44.4-76.78c2.99-5.2,2.99-11.6,0-16.8l-44.4-76.78c-3-5.19-8.54-8.39-14.53-8.39Zm-19.04,154.01h-50.4c-5.99,0-11.53-3.2-14.53-8.39l-25.19-43.65c-2.99-5.2-2.99-11.6,0-16.8l25.1-43.63c2.99-5.2,8.54-8.4,14.53-8.39h50.5c6-.01,11.54,3.19,14.53,8.39l25.19,43.63c3.02,5.19,3.02,11.61,0,16.8l-25.28,43.67c-2.99,5.15-8.48,8.34-14.44,8.37Z"/>
    <path id="oct_5" data-name="oct 5" class="cls-1 hoverOne" d="M591.86,1190.88h-78.59c-5.3,.02-10.19,2.85-12.84,7.43l-39.35,68.05c-2.67,4.6-2.67,10.29,0,14.89l39.35,68.05c2.65,4.6,7.57,7.44,12.88,7.43h78.55c5.32,.01,10.23-2.83,12.88-7.43l39.35-68.05c2.65-4.61,2.65-10.28,0-14.89l-39.35-68.05c-2.66-4.6-7.57-7.44-12.88-7.43Zm-16.88,136.49h-44.67c-5.31,0-10.22-2.84-12.88-7.43l-22.32-38.68c-2.65-4.61-2.65-10.28,0-14.89l22.24-38.66c2.65-4.6,7.57-7.44,12.88-7.43h44.75c5.32-.01,10.23,2.83,12.88,7.43l22.32,38.66c2.67,4.6,2.67,10.29,0,14.89l-22.41,38.71c-2.65,4.57-7.52,7.39-12.8,7.41Z"/>
    <path id="oct_4" data-name="oct 4" class="cls-1 hoverTwo" d="M63.94,138H7.2c-3.82,.01-7.35,2.06-9.27,5.37l-28.41,49.13c-1.93,3.32-1.93,7.43,0,10.75L-2.07,252.37c1.92,3.32,5.46,5.37,9.3,5.37H63.94c3.84,0,7.39-2.04,9.3-5.37l28.41-49.13c1.91-3.33,1.91-7.42,0-10.75l-28.41-49.13c-1.92-3.32-5.46-5.37-9.3-5.37Zm-12.18,98.54H19.51c-3.84,0-7.38-2.05-9.3-5.37l-16.12-27.93c-1.91-3.33-1.91-7.42,0-10.75l16.06-27.91c1.92-3.32,5.46-5.37,9.3-5.37H51.75c3.84,0,7.39,2.04,9.3,5.37l16.12,27.91c1.93,3.32,1.93,7.43,0,10.75l-16.18,27.94c-1.91,3.3-5.43,5.34-9.24,5.35Z"/>
    <path id="oct_3" data-name="oct 3" class="cls-1 hoverThree" d="M234.89-53h-104.65c-7.05,.02-13.56,3.79-17.1,9.9L60.75,47.51c-3.56,6.13-3.56,13.7,0,19.83l52.39,90.61c3.53,6.13,10.07,9.91,17.15,9.9h104.59c7.08,.01,13.62-3.76,17.15-9.9l52.39-90.61c3.53-6.14,3.53-13.69,0-19.83l-52.39-90.61c-3.54-6.13-10.08-9.9-17.15-9.9Zm-22.47,181.75h-59.48c-7.07,0-13.61-3.78-17.15-9.9l-29.73-51.51c-3.53-6.14-3.53-13.69,0-19.83L135.67-3.97c3.53-6.13,10.07-9.91,17.15-9.9h59.59c7.08-.01,13.62,3.76,17.15,9.9l29.73,51.48c3.56,6.13,3.56,13.7,0,19.83l-29.84,51.54c-3.52,6.08-10.01,9.84-17.04,9.87Z"/>
    <path id="oct_2" data-name="oct 2" class="cls-1 hoverTwo" d="M402.94,78h-56.74c-3.82,.01-7.35,2.06-9.27,5.37l-28.41,49.13c-1.93,3.32-1.93,7.43,0,10.75l28.41,49.13c1.92,3.32,5.46,5.37,9.3,5.37h56.71c3.84,0,7.39-2.04,9.3-5.37l28.41-49.13c1.91-3.33,1.91-7.42,0-10.75l-28.41-49.13c-1.92-3.32-5.46-5.37-9.3-5.37Zm-12.18,98.54h-32.25c-3.84,0-7.38-2.05-9.3-5.37l-16.12-27.93c-1.91-3.33-1.91-7.42,0-10.75l16.06-27.91c1.92-3.32,5.46-5.37,9.3-5.37h32.31c3.84,0,7.39,2.04,9.3,5.37l16.12,27.91c1.93,3.32,1.93,7.43,0,10.75l-16.18,27.94c-1.91,3.3-5.43,5.34-9.24,5.35Z"/>
    <path id="oct_1" data-name="oct 1" class="cls-1 hoverOne" d="M603.34-78.68h-102.55c-6.91,.02-13.29,3.72-16.75,9.7l-51.34,88.79c-3.49,6.01-3.49,13.42,0,19.43l51.34,88.79c3.46,6.01,9.87,9.71,16.81,9.7h102.49c6.94,.01,13.35-3.69,16.81-9.7l51.34-88.79c3.46-6.01,3.46-13.41,0-19.43l-51.34-88.79c-3.47-6-9.87-9.7-16.81-9.7Zm-22.02,178.1h-58.29c-6.93,0-13.34-3.7-16.81-9.7l-29.13-50.48c-3.46-6.01-3.46-13.41,0-19.43l29.02-50.45c3.46-6.01,9.87-9.71,16.81-9.7h58.39c6.94-.01,13.35,3.69,16.81,9.7l29.13,50.45c3.49,6.01,3.49,13.42,0,19.43l-29.24,50.5c-3.45,5.96-9.81,9.64-16.7,9.67Z"/>
  </g>
</svg>